<svg width="480" height="640" viewBox="0 0 480 640" xmlns="http://www.w3.org/2000/svg">
    
    <defs>
  <pattern id="h12" width="16" height="16" patternUnits="userSpaceOnUse">
    <circle cx="8" cy="8" r="3" fill="#2a2118" opacity="0.1" />
  </pattern></defs>
    <rect width="480" height="640" fill="#fbf6ec" />
    <rect x="216" y="396.8" width="264" height="243.2" fill="url(#h12)" />
    <rect x="10" y="10" width="460" height="620" fill="none" stroke="#2a2118" stroke-width="8" rx="14" />
    <g transform="translate(160 260)">
      <path d="M -8 -160 L 8 -160 L 8 -110 Q 40 -90 40 -40 L 40 120 Q 40 140 20 140 L -20 140 Q -40 140 -40 120 L -40 -40 Q -40 -90 -8 -110 Z"
            fill="#fbf6ec" stroke="#2a2118" stroke-width="7" />
      <rect x="-30" y="0" width="60" height="70" fill="#8a5c13" opacity="0.7" />
      <rect x="-28" y="-8" width="56" height="34" fill="#fbf6ec" stroke="#2a2118" stroke-width="3" />
      <text x="0" y="14" font-family="Helvetica, Arial, sans-serif" font-weight="800" font-size="10" fill="#2a2118" text-anchor="middle">INVEST-
MENT</text>
    </g>
    <text x="240" y="270" font-size="46" fill="#6b6154" text-anchor="middle">→</text>
    <g transform="translate(340 260)">
      <path d="M -50 -120 L 50 -120 L 30 40 L -30 40 Z" fill="none" stroke="#2a2118" stroke-width="7" />
      <path d="M -32 -10 L 32 -10 L 20 30 L -20 30 Z" fill="#b97d1c" opacity="0.55" />
      <line x1="0" y1="40" x2="0" y2="90" stroke="#2a2118" stroke-width="7" />
      <line x1="-34" y1="90" x2="34" y2="90" stroke="#2a2118" stroke-width="7" />
      <text x="0" y="-140" font-family="Helvetica, Arial, sans-serif" font-weight="900" font-size="16" fill="#16a34a" text-anchor="middle">FREE</text>
    </g>
    <text x="240" y="470" font-family="Helvetica, Arial, sans-serif" font-weight="700" font-size="15" fill="#8a5c13" text-anchor="middle">the same bottle, felt two different ways</text>
  </svg>
