<svg width="480" height="640" viewBox="0 0 480 640" xmlns="http://www.w3.org/2000/svg">
    
    <defs>
  <pattern id="h1" width="16" height="16" patternUnits="userSpaceOnUse">
    <circle cx="8" cy="8" r="3" fill="#2a2118" opacity="0.1" />
  </pattern></defs>
    <rect width="480" height="640" fill="#fbf6ec" />
    <rect x="0" y="0" width="264" height="256" fill="url(#h1)" />
    <rect x="10" y="10" width="460" height="620" fill="none" stroke="#2a2118" stroke-width="8" rx="14" />
    <g transform="translate(240 300)">
      <path d="M -70 -170 L 90 -170 Q 108 -170 108 -152 L 108 60 Q 108 78 92 88 L -50 168 Q -68 176 -78 160 L -140 -50 Q -148 -66 -134 -78 Z"
            fill="#fbf6ec" stroke="#2a2118" stroke-width="7" />
      <circle cx="-52" cy="-138" r="12" fill="#fbf6ec" stroke="#2a2118" stroke-width="7" />
      <text x="10" y="-30" font-family="Helvetica, Arial, sans-serif" font-weight="900" font-size="90" fill="#b97d1c" text-anchor="middle">?</text>
    </g>
    
        <line x1="240" y1="300" x2="56.8" y2="313.5" stroke="#6b6154" stroke-width="2" stroke-dasharray="6 6" opacity="0.6" />
        <circle cx="56.8" cy="313.5" r="46" fill="#fbf6ec" stroke="#2a2118" stroke-width="5" />
        <text x="56.759938946747866" y="318.4707602166925" font-family="Helvetica, Arial, sans-serif" font-weight="700" font-size="12" fill="#2a2118" text-anchor="middle">sticker</text>
      
        <line x1="240" y1="300" x2="102.1" y2="180.1" stroke="#6b6154" stroke-width="2" stroke-dasharray="6 6" opacity="0.6" />
        <circle cx="102.1" cy="180.1" r="46" fill="#fbf6ec" stroke="#8a5c13" stroke-width="5" />
        <text x="102.11417766862326" y="185.1267281111898" font-family="Helvetica, Arial, sans-serif" font-weight="700" font-size="12" fill="#8a5c13" text-anchor="middle">reference</text>
      
        <line x1="240" y1="300" x2="306.7" y2="150.6" stroke="#6b6154" stroke-width="2" stroke-dasharray="6 6" opacity="0.6" />
        <circle cx="306.7" cy="150.6" r="46" fill="#fbf6ec" stroke="#a8402a" stroke-width="5" />
        <text x="306.6939279485054" y="155.56506789811107" font-family="Helvetica, Arial, sans-serif" font-weight="700" font-size="12" fill="#a8402a" text-anchor="middle">sale</text>
      
        <line x1="240" y1="300" x2="434.3" y2="258.9" stroke="#6b6154" stroke-width="2" stroke-dasharray="6 6" opacity="0.6" />
        <circle cx="434.3" cy="258.9" r="46" fill="#fbf6ec" stroke="#16a34a" stroke-width="5" />
        <text x="434.25796612789037" y="263.9225050967726" font-family="Helvetica, Arial, sans-serif" font-weight="700" font-size="12" fill="#16a34a" text-anchor="middle">market</text>
      
        <line x1="240" y1="300" x2="337.5" y2="380.1" stroke="#6b6154" stroke-width="2" stroke-dasharray="6 6" opacity="0.6" />
        <circle cx="337.5" cy="380.1" r="46" fill="#fbf6ec" stroke="#b97d1c" stroke-width="5" />
        <text x="337.5" y="378.07182882100216" font-family="Helvetica, Arial, sans-serif" font-weight="700" font-size="12" fill="#b97d1c" text-anchor="middle">willingness</text><text x="337.5" y="392.07182882100216" font-family="Helvetica, Arial, sans-serif" font-weight="700" font-size="12" fill="#b97d1c" text-anchor="middle">to pay</text>
      
  </svg>
